<svg xmlns="http://www.w3.org/2000/svg" viewBox="0 0 800 800">
  <rect x="0" y="0" width="800" height="800" fill="#283044"/>
  <g>
    <g transform="translate(27.323337913493333, 604.9400206036912) translate(215.83983446667628, 215.83983446667628) scale(1, 1) translate(-215.83983446667628, -215.83983446667628) rotate(0, 215.83983446667628, 215.83983446667628)">
      <ellipse cx="215.83983446667628" cy="215.83983446667628" rx="215.83983446667628" ry="215.83983446667628" fill="#F46036"/>
    </g>
    <g transform="translate(138.62173879239958, 460.6576109357225) translate(215.83983446667628, 215.83983446667628) scale(1, 1) translate(-215.83983446667628, -215.83983446667628) rotate(0, 215.83983446667628, 215.83983446667628)">
      <ellipse cx="215.83983446667628" cy="215.83983446667628" rx="215.83983446667628" ry="215.83983446667628" fill="#F46036"/>
    </g>
    <g transform="translate(304.4253276595871, 414.6673765607225) translate(215.83983446667628, 215.83983446667628) scale(1, 1) translate(-215.83983446667628, -215.83983446667628) rotate(0, 215.83983446667628, 215.83983446667628)">
      <ellipse cx="215.83983446667628" cy="215.83983446667628" rx="215.83983446667628" ry="215.83983446667628" fill="#F46036"/>
    </g>
    <g transform="translate(565.500980735759, 443.52778915837877) translate(215.83983446667628, 215.83983446667628) scale(1, 1) translate(-215.83983446667628, -215.83983446667628) rotate(0, 215.83983446667628, 215.83983446667628)">
      <ellipse cx="215.83983446667628" cy="215.83983446667628" rx="215.83983446667628" ry="215.83983446667628" fill="#F46036"/>
    </g>
    <g transform="translate(-524.5346266637687, 459.2116421720369) translate(436.2068754402769, 377.7662354367143) scale(1, -1) translate(-436.2068754402769, -377.7662354367143) rotate(0, 436.2068754402769, 377.7662354367143)">
      <polygon points="436.2068754402769,0 872.4137508805538,755.5324708734282 0,755.5324708734286" fill="#283044"/>
    </g>
    <g transform="translate(173.83501329559923, 100.83254440004359) translate(216.87338546705823, 216.87338546705823) scale(1, 1) translate(-216.87338546705823, -216.87338546705823) rotate(0, 216.87338546705823, 216.87338546705823)">
      <ellipse cx="216.87338546705823" cy="216.87338546705823" rx="216.87338546705823" ry="216.87338546705823" fill="#F46036"/>
    </g>
    <g transform="translate(463.7250602831002, -129.97970304280688) translate(436.2068754402769, 377.7662354367143) scale(1, 1) translate(-436.2068754402769, -377.7662354367143) rotate(0, 436.2068754402769, 377.7662354367143)">
      <polygon points="436.2068754402769,0 872.4137508805538,755.5324708734282 0,755.5324708734286" fill="#283044"/>
    </g>
  </g>
</svg>
